<mxfile host="app.diagrams.net" modified="2023-10-27T23:52:59.731Z" agent="Mozilla/5.0 (Windows NT 10.0; Win64; x64) AppleWebKit/537.36 (KHTML, like Gecko) Chrome/118.0.0.0 Safari/537.36" etag="9UF-QNavXlbsjYhiQQ2R" version="22.0.8" type="github" pages="3">
  <diagram name="Mensagem" id="JZtim8aUh2towmOD4KZB">
    <mxGraphModel dx="954" dy="602" grid="1" gridSize="10" guides="1" tooltips="1" connect="1" arrows="1" fold="1" page="1" pageScale="1" pageWidth="827" pageHeight="1169" math="0" shadow="0">
      <root>
        <mxCell id="0" />
        <mxCell id="1" parent="0" />
        <mxCell id="l2o96gS-gFLjVwsu-2g1-1" value="&lt;p style=&quot;margin:0px;margin-top:4px;text-align:center;&quot;&gt;&lt;i&gt;&amp;lt;&amp;lt;Mensagem&amp;gt;&amp;gt;&lt;/i&gt;&lt;br&gt;&lt;b&gt;Dados Usuário&lt;/b&gt;&lt;/p&gt;&lt;hr size=&quot;1&quot;&gt;&lt;p style=&quot;margin:0px;margin-left:4px;&quot;&gt;&lt;span style=&quot;background-color: initial;&quot;&gt;- nome: string&lt;/span&gt;&lt;br&gt;&lt;/p&gt;&lt;p style=&quot;margin:0px;margin-left:4px;&quot;&gt;- cpf : sting&lt;/p&gt;&lt;p style=&quot;margin:0px;margin-left:4px;&quot;&gt;- telefone : string&lt;/p&gt;&lt;p style=&quot;margin:0px;margin-left:4px;&quot;&gt;- email : string&lt;/p&gt;" style="verticalAlign=top;align=left;overflow=fill;fontSize=12;fontFamily=Helvetica;html=1;whiteSpace=wrap;" parent="1" vertex="1">
          <mxGeometry x="70" y="30" width="190" height="140" as="geometry" />
        </mxCell>
        <mxCell id="LMZlqkAKxc-AQkz6RHPW-1" value="&lt;p style=&quot;margin:0px;margin-top:4px;text-align:center;&quot;&gt;&lt;i&gt;&amp;lt;&amp;lt;Mensagem&amp;gt;&amp;gt;&lt;/i&gt;&lt;br&gt;&lt;b&gt;Dados Especialista&lt;/b&gt;&lt;/p&gt;&lt;hr size=&quot;1&quot;&gt;&lt;p style=&quot;margin:0px;margin-left:4px;&quot;&gt;&lt;span style=&quot;background-color: initial;&quot;&gt;- nome_especialista: string&lt;/span&gt;&lt;br&gt;&lt;/p&gt;&lt;p style=&quot;margin:0px;margin-left:4px;&quot;&gt;- cpf : sting&lt;/p&gt;&lt;p style=&quot;margin:0px;margin-left:4px;&quot;&gt;- telefone : string&lt;/p&gt;&lt;p style=&quot;margin:0px;margin-left:4px;&quot;&gt;- email : string&lt;br&gt;&lt;/p&gt;&lt;p style=&quot;margin:0px;margin-left:4px;&quot;&gt;- certificado: file&amp;nbsp;&lt;/p&gt;&lt;p style=&quot;margin:0px;margin-left:4px;&quot;&gt;&lt;br&gt;&lt;/p&gt;" style="verticalAlign=top;align=left;overflow=fill;fontSize=12;fontFamily=Helvetica;html=1;whiteSpace=wrap;" parent="1" vertex="1">
          <mxGeometry x="70" y="180" width="190" height="140" as="geometry" />
        </mxCell>
        <mxCell id="LMZlqkAKxc-AQkz6RHPW-2" value="&lt;p style=&quot;margin:0px;margin-top:4px;text-align:center;&quot;&gt;&lt;i&gt;&amp;lt;&amp;lt;Mensagem&amp;gt;&amp;gt;&lt;/i&gt;&lt;br&gt;&lt;b&gt;Dados Transportadora&lt;/b&gt;&lt;/p&gt;&lt;hr size=&quot;1&quot;&gt;&lt;p style=&quot;margin:0px;margin-left:4px;&quot;&gt;&lt;span style=&quot;background-color: initial;&quot;&gt;- nome_transpostadora: string&lt;/span&gt;&lt;br&gt;&lt;/p&gt;&lt;p style=&quot;margin:0px;margin-left:4px;&quot;&gt;- cnpj : sting&lt;/p&gt;&lt;p style=&quot;margin:0px;margin-left:4px;&quot;&gt;- telefone : string&lt;/p&gt;&lt;p style=&quot;border-color: var(--border-color); margin: 0px 0px 0px 4px;&quot;&gt;- certificado: file&amp;nbsp;&lt;/p&gt;&lt;p style=&quot;border-color: var(--border-color); margin: 0px 0px 0px 4px;&quot;&gt;- email : string&lt;br&gt;&lt;/p&gt;&lt;p style=&quot;border-color: var(--border-color); margin: 0px 0px 0px 4px;&quot;&gt;&lt;br style=&quot;border-color: var(--border-color);&quot;&gt;&lt;/p&gt;" style="verticalAlign=top;align=left;overflow=fill;fontSize=12;fontFamily=Helvetica;html=1;whiteSpace=wrap;" parent="1" vertex="1">
          <mxGeometry x="65" y="360" width="190" height="130" as="geometry" />
        </mxCell>
        <mxCell id="LMZlqkAKxc-AQkz6RHPW-4" value="&lt;p style=&quot;margin:0px;margin-top:4px;text-align:center;&quot;&gt;&lt;i&gt;&amp;lt;&amp;lt;Mensagem&amp;gt;&amp;gt;&lt;/i&gt;&lt;br&gt;&lt;b&gt;Dados Validação Documentos&lt;/b&gt;&lt;/p&gt;&lt;hr size=&quot;1&quot;&gt;&lt;p style=&quot;margin:0px;margin-left:4px;&quot;&gt;- certificado: file&lt;/p&gt;&lt;p style=&quot;margin:0px;margin-left:4px;&quot;&gt;- cpf: string&lt;br&gt;&lt;/p&gt;&lt;p style=&quot;margin:0px;margin-left:4px;&quot;&gt;- cnpj : string&lt;/p&gt;" style="verticalAlign=top;align=left;overflow=fill;fontSize=12;fontFamily=Helvetica;html=1;whiteSpace=wrap;" parent="1" vertex="1">
          <mxGeometry x="65" y="520" width="200" height="100" as="geometry" />
        </mxCell>
        <mxCell id="LMZlqkAKxc-AQkz6RHPW-5" value="&lt;p style=&quot;margin:0px;margin-top:4px;text-align:center;&quot;&gt;&lt;i&gt;&amp;lt;&amp;lt;Mensagem&amp;gt;&amp;gt;&lt;/i&gt;&lt;br&gt;&lt;b&gt;Dados Validação&amp;nbsp; login&lt;/b&gt;&lt;/p&gt;&lt;hr size=&quot;1&quot;&gt;&lt;p style=&quot;margin:0px;margin-left:4px;&quot;&gt;- login : string&lt;/p&gt;&lt;p style=&quot;margin:0px;margin-left:4px;&quot;&gt;- senha ; string&lt;/p&gt;" style="verticalAlign=top;align=left;overflow=fill;fontSize=12;fontFamily=Helvetica;html=1;whiteSpace=wrap;" parent="1" vertex="1">
          <mxGeometry x="290" y="480" width="200" height="80" as="geometry" />
        </mxCell>
        <mxCell id="LMZlqkAKxc-AQkz6RHPW-6" value="&lt;p style=&quot;margin:0px;margin-top:4px;text-align:center;&quot;&gt;&lt;i&gt;&amp;lt;&amp;lt;Mensagem&amp;gt;&amp;gt;&lt;/i&gt;&lt;br&gt;&lt;b&gt;Dados&amp;nbsp; Produto&lt;/b&gt;&lt;/p&gt;&lt;hr size=&quot;1&quot;&gt;&lt;p style=&quot;margin:0px;margin-left:4px;&quot;&gt;- nome_produto : string&lt;/p&gt;&lt;p style=&quot;margin:0px;margin-left:4px;&quot;&gt;- detalhes: string&lt;/p&gt;&lt;p style=&quot;margin:0px;margin-left:4px;&quot;&gt;- preco: float&lt;/p&gt;&lt;p style=&quot;margin:0px;margin-left:4px;&quot;&gt;- fotos : file&lt;/p&gt;&lt;p style=&quot;margin:0px;margin-left:4px;&quot;&gt;- status_avaliador : bool&lt;/p&gt;" style="verticalAlign=top;align=left;overflow=fill;fontSize=12;fontFamily=Helvetica;html=1;whiteSpace=wrap;" parent="1" vertex="1">
          <mxGeometry x="290" y="30" width="200" height="120" as="geometry" />
        </mxCell>
        <mxCell id="LMZlqkAKxc-AQkz6RHPW-7" value="&lt;p style=&quot;margin:0px;margin-top:4px;text-align:center;&quot;&gt;&lt;i&gt;&amp;lt;&amp;lt;Mensagem&amp;gt;&amp;gt;&lt;/i&gt;&lt;br&gt;&lt;b&gt;Dados Prestação Serviços&lt;/b&gt;&lt;/p&gt;&lt;hr size=&quot;1&quot;&gt;&lt;p style=&quot;margin:0px;margin-left:4px;&quot;&gt;- tipo_serviço: string&lt;/p&gt;&lt;p style=&quot;margin:0px;margin-left:4px;&quot;&gt;- detalhe_servico: string&lt;/p&gt;&lt;p style=&quot;margin:0px;margin-left:4px;&quot;&gt;- valor: float&lt;/p&gt;&lt;p style=&quot;margin:0px;margin-left:4px;&quot;&gt;- nome_prestador : string&lt;/p&gt;" style="verticalAlign=top;align=left;overflow=fill;fontSize=12;fontFamily=Helvetica;html=1;whiteSpace=wrap;" parent="1" vertex="1">
          <mxGeometry x="290" y="170" width="200" height="110" as="geometry" />
        </mxCell>
        <mxCell id="LMZlqkAKxc-AQkz6RHPW-8" value="&lt;p style=&quot;margin:0px;margin-top:4px;text-align:center;&quot;&gt;&lt;i&gt;&amp;lt;&amp;lt;Mensagem&amp;gt;&amp;gt;&lt;/i&gt;&lt;br&gt;&lt;b&gt;Dados Avaliação&lt;/b&gt;&lt;/p&gt;&lt;hr size=&quot;1&quot;&gt;&lt;p style=&quot;margin:0px;margin-left:4px;&quot;&gt;- nome_avaliador: string&lt;/p&gt;&lt;p style=&quot;margin:0px;margin-left:4px;&quot;&gt;- detalhe_avalicao: string&lt;/p&gt;&lt;p style=&quot;margin:0px;margin-left:4px;&quot;&gt;- nome_vendedor: string&lt;/p&gt;&lt;p style=&quot;margin:0px;margin-left:4px;&quot;&gt;- nome_produto: string&lt;/p&gt;&lt;p style=&quot;margin:0px;margin-left:4px;&quot;&gt;- preco_avaliacao: float&lt;/p&gt;&lt;p style=&quot;margin:0px;margin-left:4px;&quot;&gt;- detalhes_produto: string&lt;/p&gt;&lt;p style=&quot;margin:0px;margin-left:4px;&quot;&gt;- numero_pedido_avaliacao: int&lt;/p&gt;" style="verticalAlign=top;align=left;overflow=fill;fontSize=12;fontFamily=Helvetica;html=1;whiteSpace=wrap;" parent="1" vertex="1">
          <mxGeometry x="510" y="190" width="200" height="150" as="geometry" />
        </mxCell>
        <mxCell id="LMZlqkAKxc-AQkz6RHPW-9" value="&lt;p style=&quot;margin:0px;margin-top:4px;text-align:center;&quot;&gt;&lt;i&gt;&amp;lt;&amp;lt;Mensagem&amp;gt;&amp;gt;&lt;/i&gt;&lt;br&gt;&lt;b&gt;Dados Entrega&lt;/b&gt;&lt;/p&gt;&lt;hr size=&quot;1&quot;&gt;&lt;p style=&quot;margin:0px;margin-left:4px;&quot;&gt;- nome_transportadora: string&lt;/p&gt;&lt;p style=&quot;margin:0px;margin-left:4px;&quot;&gt;- cnpj: string&lt;/p&gt;&lt;p style=&quot;margin:0px;margin-left:4px;&quot;&gt;- endereco_entrega: string&lt;/p&gt;&lt;p style=&quot;margin:0px;margin-left:4px;&quot;&gt;- numero_pedido_entrega: string&lt;/p&gt;&lt;p style=&quot;margin:0px;margin-left:4px;&quot;&gt;- preco_entrega: float&lt;/p&gt;&lt;p style=&quot;margin:0px;margin-left:4px;&quot;&gt;- detalhes_entrega: string&lt;/p&gt;&lt;p style=&quot;margin:0px;margin-left:4px;&quot;&gt;- status_entrega : string&lt;/p&gt;" style="verticalAlign=top;align=left;overflow=fill;fontSize=12;fontFamily=Helvetica;html=1;whiteSpace=wrap;" parent="1" vertex="1">
          <mxGeometry x="290" y="310" width="200" height="150" as="geometry" />
        </mxCell>
        <mxCell id="LMZlqkAKxc-AQkz6RHPW-10" value="&lt;p style=&quot;margin:0px;margin-top:4px;text-align:center;&quot;&gt;&lt;i&gt;&amp;lt;&amp;lt;Mensagem&amp;gt;&amp;gt;&lt;/i&gt;&lt;br&gt;&lt;b&gt;Dados Compra&lt;/b&gt;&lt;/p&gt;&lt;hr size=&quot;1&quot;&gt;&lt;p style=&quot;margin:0px;margin-left:4px;&quot;&gt;- nome_vendedor: string&lt;/p&gt;&lt;p style=&quot;margin:0px;margin-left:4px;&quot;&gt;- nome_comprador: string&lt;/p&gt;&lt;p style=&quot;margin:0px;margin-left:4px;&quot;&gt;- nome_produto: string&lt;/p&gt;&lt;p style=&quot;margin:0px;margin-left:4px;&quot;&gt;- valor_pedido_compra: float&lt;/p&gt;&lt;p style=&quot;margin:0px;margin-left:4px;&quot;&gt;- numero_pedido_compra: int&lt;/p&gt;&lt;p style=&quot;margin:0px;margin-left:4px;&quot;&gt;- status_compra : bool&lt;/p&gt;&lt;p style=&quot;margin:0px;margin-left:4px;&quot;&gt;&lt;br&gt;&lt;/p&gt;" style="verticalAlign=top;align=left;overflow=fill;fontSize=12;fontFamily=Helvetica;html=1;whiteSpace=wrap;" parent="1" vertex="1">
          <mxGeometry x="510" y="370" width="200" height="140" as="geometry" />
        </mxCell>
        <mxCell id="LMZlqkAKxc-AQkz6RHPW-11" value="&lt;p style=&quot;margin:0px;margin-top:4px;text-align:center;&quot;&gt;&lt;i&gt;&amp;lt;&amp;lt;Mensagem&amp;gt;&amp;gt;&lt;/i&gt;&lt;br&gt;&lt;b&gt;Dados&amp;nbsp; Pagamento&lt;/b&gt;&lt;/p&gt;&lt;hr size=&quot;1&quot;&gt;&lt;p style=&quot;margin:0px;margin-left:4px;&quot;&gt;- valor_pagamento : float&lt;/p&gt;&lt;p style=&quot;margin:0px;margin-left:4px;&quot;&gt;- nome_pagador: string&lt;/p&gt;&lt;p style=&quot;margin:0px;margin-left:4px;&quot;&gt;- numero_cartao: string&lt;/p&gt;&lt;p style=&quot;margin:0px;margin-left:4px;&quot;&gt;- codigo_cartao : string&lt;/p&gt;&lt;p style=&quot;margin:0px;margin-left:4px;&quot;&gt;- chave_pix:string&lt;/p&gt;&lt;p style=&quot;margin:0px;margin-left:4px;&quot;&gt;- status_pagamento: bool&lt;/p&gt;" style="verticalAlign=top;align=left;overflow=fill;fontSize=12;fontFamily=Helvetica;html=1;whiteSpace=wrap;" parent="1" vertex="1">
          <mxGeometry x="510" y="30" width="190" height="140" as="geometry" />
        </mxCell>
      </root>
    </mxGraphModel>
  </diagram>
  <diagram id="wuOW9aep9jdT5zVFbdfa" name="Interface_servico">
    <mxGraphModel dx="954" dy="602" grid="1" gridSize="10" guides="1" tooltips="1" connect="1" arrows="1" fold="1" page="1" pageScale="1" pageWidth="827" pageHeight="1169" math="0" shadow="0">
      <root>
        <mxCell id="0" />
        <mxCell id="1" parent="0" />
        <mxCell id="7tnCkj3WViwJC0sU_wAv-1" value="&lt;p style=&quot;margin:0px;margin-top:4px;text-align:center;&quot;&gt;&lt;i&gt;&amp;lt;&amp;lt;Interface de Serviço&amp;gt;&amp;gt;&lt;/i&gt;&lt;br&gt;&lt;b&gt;Usuario&lt;/b&gt;&lt;/p&gt;&lt;hr size=&quot;1&quot;&gt;&lt;p style=&quot;margin:0px;margin-left:4px;&quot;&gt;+inserir_casdatro_usuario ( usuario: DadosUsuario)&lt;/p&gt;" style="verticalAlign=top;align=left;overflow=fill;fontSize=12;fontFamily=Helvetica;html=1;whiteSpace=wrap;" parent="1" vertex="1">
          <mxGeometry x="40" y="80" width="290" height="70" as="geometry" />
        </mxCell>
        <mxCell id="PCRGC8BtuYw2ggHRhsda-1" value="&lt;p style=&quot;margin:0px;margin-top:4px;text-align:center;&quot;&gt;&lt;i&gt;&amp;lt;&amp;lt;Interface de Serviço&amp;gt;&amp;gt;&lt;/i&gt;&lt;br&gt;&lt;b&gt;Especialista&lt;/b&gt;&lt;/p&gt;&lt;hr size=&quot;1&quot;&gt;&lt;p style=&quot;margin:0px;margin-left:4px;&quot;&gt;+inserir_casdatro_especialista ( especialista: DadosEspecialista)&lt;/p&gt;" style="verticalAlign=top;align=left;overflow=fill;fontSize=12;fontFamily=Helvetica;html=1;whiteSpace=wrap;" parent="1" vertex="1">
          <mxGeometry x="40" y="160" width="370" height="70" as="geometry" />
        </mxCell>
        <mxCell id="zmdttV2e_a9gB1dAl_Wd-1" value="&lt;p style=&quot;margin:0px;margin-top:4px;text-align:center;&quot;&gt;&lt;i&gt;&amp;lt;&amp;lt;Interface de Serviço&amp;gt;&amp;gt;&lt;/i&gt;&lt;br&gt;&lt;b&gt;Transportadora&lt;/b&gt;&lt;/p&gt;&lt;hr size=&quot;1&quot;&gt;&lt;p style=&quot;margin:0px;margin-left:4px;&quot;&gt;+inserir_casdatro_transportadora ( transportadora: DadosTransportadora)&lt;/p&gt;" style="verticalAlign=top;align=left;overflow=fill;fontSize=12;fontFamily=Helvetica;html=1;whiteSpace=wrap;" parent="1" vertex="1">
          <mxGeometry x="40" y="240" width="410" height="70" as="geometry" />
        </mxCell>
        <mxCell id="zmdttV2e_a9gB1dAl_Wd-2" value="&lt;p style=&quot;margin:0px;margin-top:4px;text-align:center;&quot;&gt;&lt;i&gt;&amp;lt;&amp;lt;Interface de Serviço&amp;gt;&amp;gt;&lt;/i&gt;&lt;br&gt;&lt;b&gt;Validar&lt;/b&gt;&lt;/p&gt;&lt;hr size=&quot;1&quot;&gt;&lt;p style=&quot;margin:0px;margin-left:4px;&quot;&gt;+validar_documento ( validar : DadosValidacaoDocumentos)&amp;nbsp; : resultado_avalicao bool&lt;/p&gt;" style="verticalAlign=top;align=left;overflow=fill;fontSize=12;fontFamily=Helvetica;html=1;whiteSpace=wrap;" parent="1" vertex="1">
          <mxGeometry x="40" y="320" width="490" height="70" as="geometry" />
        </mxCell>
        <mxCell id="9V7AtkXLNeb_BaZpbLdo-1" value="&lt;p style=&quot;margin:0px;margin-top:4px;text-align:center;&quot;&gt;&lt;i&gt;&amp;lt;&amp;lt;Interface de Serviço&amp;gt;&amp;gt;&lt;/i&gt;&lt;br&gt;&lt;b&gt;Logar&lt;/b&gt;&lt;/p&gt;&lt;hr size=&quot;1&quot;&gt;&lt;p style=&quot;margin:0px;margin-left:4px;&quot;&gt;+validar_login ( validar : DadosValidacaoLogin)&amp;nbsp; : autenticacao bool&lt;/p&gt;" style="verticalAlign=top;align=left;overflow=fill;fontSize=12;fontFamily=Helvetica;html=1;whiteSpace=wrap;" parent="1" vertex="1">
          <mxGeometry x="40" y="400" width="490" height="70" as="geometry" />
        </mxCell>
        <mxCell id="kFSegNF93Y9SEMzQ_Zbl-1" value="&lt;p style=&quot;margin:0px;margin-top:4px;text-align:center;&quot;&gt;&lt;i&gt;&amp;lt;&amp;lt;Interface de Serviço&amp;gt;&amp;gt;&lt;/i&gt;&lt;br&gt;&lt;b&gt;Produto&lt;/b&gt;&lt;/p&gt;&lt;hr size=&quot;1&quot;&gt;&lt;p style=&quot;margin:0px;margin-left:4px;&quot;&gt;+inserir_produto (produto : DadosProduto)&amp;nbsp;&lt;/p&gt;&lt;p style=&quot;margin:0px;margin-left:4px;&quot;&gt;+atuzalizar_produto_catalogo (produto : DadosProduto) : status_atualizacao bool&lt;/p&gt;&lt;p style=&quot;margin:0px;margin-left:4px;&quot;&gt;+obter_detalhes_produto (nome_produto : string) : detalhes_produto : string&lt;/p&gt;&lt;p style=&quot;margin:0px;margin-left:4px;&quot;&gt;+inserir_produto_carrinho (produto : DadosProduto)&lt;/p&gt;" style="verticalAlign=top;align=left;overflow=fill;fontSize=12;fontFamily=Helvetica;html=1;whiteSpace=wrap;" parent="1" vertex="1">
          <mxGeometry x="40" y="480" width="490" height="110" as="geometry" />
        </mxCell>
        <mxCell id="OguaOTg7TRTq61JGd_u3-1" value="&lt;p style=&quot;margin:0px;margin-top:4px;text-align:center;&quot;&gt;&lt;i&gt;&amp;lt;&amp;lt;Interface de Serviço&amp;gt;&amp;gt;&lt;/i&gt;&lt;br&gt;&lt;b&gt;Prestar Serviço&lt;/b&gt;&lt;/p&gt;&lt;hr size=&quot;1&quot;&gt;&lt;p style=&quot;margin:0px;margin-left:4px;&quot;&gt;+obter_servicos_prestados (nome_prestador : string) : DadosPrestacaoServicos&lt;/p&gt;&lt;p style=&quot;margin:0px;margin-left:4px;&quot;&gt;+solicitar_pagamento_servicos(prestarServico: DadosPrestacaoServicos) : status_solicitacao bool&lt;/p&gt;" style="verticalAlign=top;align=left;overflow=fill;fontSize=12;fontFamily=Helvetica;html=1;whiteSpace=wrap;" parent="1" vertex="1">
          <mxGeometry x="40" y="600" width="540" height="90" as="geometry" />
        </mxCell>
        <mxCell id="vuS8C2ziCpx8d0iajcY6-2" value="&lt;p style=&quot;margin:0px;margin-top:4px;text-align:center;&quot;&gt;&lt;i&gt;&amp;lt;&amp;lt;Interface de Serviço&amp;gt;&amp;gt;&lt;/i&gt;&lt;br&gt;&lt;b&gt;Avaliar&lt;/b&gt;&lt;/p&gt;&lt;hr size=&quot;1&quot;&gt;&lt;p style=&quot;margin:0px;margin-left:4px;&quot;&gt;+inserir_pedido_avaliacao (avalicao : DadosAvalicao)&amp;nbsp;&lt;/p&gt;&lt;p style=&quot;margin:0px;margin-left:4px;&quot;&gt;+atuzalizar_pedido_avaliacao&amp;nbsp;(avalicao : DadosAvalicao) : status_atualizacao bool&lt;/p&gt;&lt;p style=&quot;margin:0px;margin-left:4px;&quot;&gt;+obter_pedido_avaliacao&amp;nbsp;(numero_pedido_avaliacao: int) :&amp;nbsp;DadosAvalicao&lt;/p&gt;&lt;p style=&quot;margin:0px;margin-left:4px;&quot;&gt;+inserir_avalicao (avalicao : DadosAvalicao) : status_insercao bool&lt;/p&gt;" style="verticalAlign=top;align=left;overflow=fill;fontSize=12;fontFamily=Helvetica;html=1;whiteSpace=wrap;" parent="1" vertex="1">
          <mxGeometry x="560" y="80" width="490" height="110" as="geometry" />
        </mxCell>
        <mxCell id="BE5blsYm9q_tVDbD7aEL-2" value="&lt;p style=&quot;margin:0px;margin-top:4px;text-align:center;&quot;&gt;&lt;i&gt;&amp;lt;&amp;lt;Interface de Serviço&amp;gt;&amp;gt;&lt;/i&gt;&lt;br&gt;&lt;b&gt;Entrega&lt;/b&gt;&lt;/p&gt;&lt;hr size=&quot;1&quot;&gt;&lt;p style=&quot;margin:0px;margin-left:4px;&quot;&gt;+inserir_pedido_entrega (entrega : DadosEntrega)&amp;nbsp;&lt;/p&gt;&lt;p style=&quot;margin:0px;margin-left:4px;&quot;&gt;+atuzalizar_status_entrega (string: staus_entrega) : DadosEntrega&lt;/p&gt;&lt;p style=&quot;margin:0px;margin-left:4px;&quot;&gt;+obter_pedido_entrega&amp;nbsp;(numero_pedido_entrega : int) :&amp;nbsp;DadosEntrega&lt;/p&gt;&lt;p style=&quot;margin:0px;margin-left:4px;&quot;&gt;+inserir_responsavel_entrega (nome_transportadora : string)&amp;nbsp;&lt;/p&gt;&lt;p style=&quot;margin:0px;margin-left:4px;&quot;&gt;+atualizar_conclusao_entrega (string: staus_entrega) : DadosEntrega&lt;/p&gt;" style="verticalAlign=top;align=left;overflow=fill;fontSize=12;fontFamily=Helvetica;html=1;whiteSpace=wrap;" parent="1" vertex="1">
          <mxGeometry x="560" y="200" width="490" height="130" as="geometry" />
        </mxCell>
        <mxCell id="A7cy7TXvG4KszDsWyRtc-2" value="&lt;p style=&quot;margin:0px;margin-top:4px;text-align:center;&quot;&gt;&lt;i&gt;&amp;lt;&amp;lt;Interface de Serviço&amp;gt;&amp;gt;&lt;/i&gt;&lt;br&gt;&lt;b&gt;Compra&lt;/b&gt;&lt;/p&gt;&lt;hr size=&quot;1&quot;&gt;&lt;p style=&quot;margin:0px;margin-left:4px;&quot;&gt;+inserir_compra (compra : DadosCompra)&amp;nbsp;&lt;/p&gt;&lt;p style=&quot;margin:0px;margin-left:4px;&quot;&gt;+atuzalizar_status_entrega (status_compra : bool) : DadosCompra&lt;/p&gt;" style="verticalAlign=top;align=left;overflow=fill;fontSize=12;fontFamily=Helvetica;html=1;whiteSpace=wrap;" parent="1" vertex="1">
          <mxGeometry x="560" y="360" width="490" height="80" as="geometry" />
        </mxCell>
        <mxCell id="biUo7DJvL75zQGd17RmQ-2" value="&lt;p style=&quot;margin:0px;margin-top:4px;text-align:center;&quot;&gt;&lt;i&gt;&amp;lt;&amp;lt;Interface de Serviço&amp;gt;&amp;gt;&lt;/i&gt;&lt;br&gt;&lt;b&gt;Pagar&lt;/b&gt;&lt;/p&gt;&lt;hr size=&quot;1&quot;&gt;&lt;p style=&quot;margin:0px;margin-left:4px;&quot;&gt;+validar_informacoes_pagamento (pagar : DadosPagamento) : status_validacao bool&lt;/p&gt;&lt;p style=&quot;margin:0px;margin-left:4px;&quot;&gt;+realizar_cobranca (pagar : DadosPagamento) : status_cobranca bool&lt;/p&gt;&lt;p style=&quot;margin:0px;margin-left:4px;&quot;&gt;+gerar_pix (&amp;nbsp;pagamento: DadosPagamento)&amp;nbsp; : chave_pix string&lt;/p&gt;&lt;p style=&quot;margin:0px;margin-left:4px;&quot;&gt;+confirmar_pagamento (pagamento: DadosPagamento) : status_pagamento bool&lt;/p&gt;" style="verticalAlign=top;align=left;overflow=fill;fontSize=12;fontFamily=Helvetica;html=1;whiteSpace=wrap;" parent="1" vertex="1">
          <mxGeometry x="560" y="480" width="490" height="110" as="geometry" />
        </mxCell>
      </root>
    </mxGraphModel>
  </diagram>
  <diagram id="bYdQEd1xytYvzClpv6pa" name="IntUsuarDiagramaRealizacaoServicosUML">
    <mxGraphModel dx="954" dy="602" grid="1" gridSize="10" guides="1" tooltips="1" connect="1" arrows="1" fold="1" page="1" pageScale="1" pageWidth="827" pageHeight="1169" math="0" shadow="0">
      <root>
        <mxCell id="0" />
        <mxCell id="1" parent="0" />
        <mxCell id="205P3rccefhtAxrSkAZ5-1" value="&lt;p style=&quot;margin:0px;margin-top:4px;text-align:center;&quot;&gt;&lt;i&gt;&amp;lt;&amp;lt;Interface de Serviço&amp;gt;&amp;gt;&lt;/i&gt;&lt;br&gt;&lt;b&gt;Usuario&lt;/b&gt;&lt;/p&gt;&lt;hr size=&quot;1&quot;&gt;&lt;p style=&quot;margin:0px;margin-left:4px;&quot;&gt;+inserir_casdatro_usuario ( usuario: DadosUsuario)&lt;/p&gt;" style="verticalAlign=top;align=left;overflow=fill;fontSize=12;fontFamily=Helvetica;html=1;whiteSpace=wrap;" vertex="1" parent="1">
          <mxGeometry x="220" y="40" width="290" height="70" as="geometry" />
        </mxCell>
        <mxCell id="205P3rccefhtAxrSkAZ5-2" value="&lt;p style=&quot;margin:0px;margin-top:4px;text-align:center;&quot;&gt;&lt;i&gt;&amp;lt;&amp;lt;Mediador&amp;gt;&amp;gt;&lt;/i&gt;&lt;br&gt;&lt;b&gt;MediadorUsuario&lt;/b&gt;&lt;/p&gt;&lt;hr size=&quot;1&quot;&gt;&lt;p style=&quot;margin:0px;margin-left:4px;&quot;&gt;+inserir_casdatro_usuario ( usuario: DadosUsuario)&lt;/p&gt;" style="verticalAlign=top;align=left;overflow=fill;fontSize=12;fontFamily=Helvetica;html=1;whiteSpace=wrap;" vertex="1" parent="1">
          <mxGeometry x="220" y="130" width="290" height="70" as="geometry" />
        </mxCell>
      </root>
    </mxGraphModel>
  </diagram>
</mxfile>
